<svg id="Layer_1" data-name="Layer 1" xmlns="http://www.w3.org/2000/svg" viewBox="0 0 64 64"><defs><style>.cls-1{fill-rule:evenodd;}</style></defs><title>Icons 500</title><path class="cls-1" d="M39.9329,38.8883l-9.5591-4.46a2.3777,2.3777,0,0,1-1.3824-2.4046c.0191-.1745,1.4938-14.48,1.5121-14.6554a1.5092,1.5092,0,0,1,3,0l1.3544,13.1322,6.6382,5.9806A1.4514,1.4514,0,0,1,39.9329,38.8883ZM5.0048,31.9891H9.9991A22,22,0,0,1,32,10h0a22,22,0,0,1,0,44h0a21.9122,21.9122,0,0,1-13.9526-4.989A2,2,0,0,1,20.6358,45.96,18,18,0,1,0,32,14h0A18,18,0,0,0,14,31.9891h4.9828a1.0274,1.0274,0,0,1,.8192,1.6225l-6.9888,9.9742a.9955.9955,0,0,1-1.6381,0L4.1858,33.6116A1.0273,1.0273,0,0,1,5.0048,31.9891Z"/></svg>